<?xml version="1.0" encoding="UTF-8"?>
<!DOCTYPE svg PUBLIC "-//W3C//DTD SVG 1.1//EN" "http://www.w3.org/Graphics/SVG/1.1/DTD/svg11.dtd">
<svg version="1.1" xmlns="http://www.w3.org/2000/svg" xmlns:xlink="http://www.w3.org/1999/xlink" x="0" y="0" width="433.006" height="500" viewBox="0, 0, 433.006, 500">
  <g id="Background">
    <rect x="0" y="0" width="433.006" height="500" fill="#FEFEFE" fill-opacity="0"/>
  </g>
  <defs>
    <linearGradient id="Gradient_1" gradientUnits="userSpaceOnUse" x1="216.505" y1="26.827" x2="216.505" y2="460.508">
      <stop offset="0" stop-color="#42805A"/>
      <stop offset="1" stop-color="#304135"/>
    </linearGradient>
  </defs>
  <g id="Ğ¡Ğ»Ğ¾Ğ¹_1">
    <path d="M216.504,-0 L-0,125.003 L-0,374.998 L216.504,500 L433.006,375.001 L433.006,125.001 z" fill="#50AA73"/>
    <path d="M213.909,33.778 L30.554,139.637 C29.125,140.463 27.956,142.488 27.956,144.137 L27.956,144.137 L27.956,355.855 C27.956,357.506 29.125,359.532 30.554,360.355 L30.554,360.355 L213.909,466.222 C215.339,467.046 217.677,467.046 219.105,466.222 L219.105,466.222 L402.455,360.355 C403.884,359.532 405.054,357.506 405.054,355.855 L405.054,355.855 L405.054,144.137 C405.054,142.488 403.884,140.463 402.455,139.637 L402.455,139.637 L219.107,33.778 C218.392,33.366 217.45,33.16 216.508,33.16 L216.508,33.16 C215.566,33.16 214.624,33.366 213.909,33.778 z" fill="url(#Gradient_1)"/>
    <path d="M160.073,140.581 C154.009,140.581 149.092,145.498 149.092,151.562 C149.092,157.627 154.009,162.543 160.073,162.543 C166.138,162.543 171.054,157.627 171.054,151.562 C171.054,145.498 166.138,140.581 160.073,140.581 M160.073,165.353 C154.547,165.353 149.611,163.21 146.351,159.847 C148.48,165.355 153.837,169.29 160.073,169.29 C166.309,169.29 171.667,165.355 173.795,159.847 C170.535,163.21 165.599,165.353 160.073,165.353 M161.98,323.199 C162.131,323.132 162.284,323.063 162.437,322.995 C162.774,307.582 163.155,292.17 163.558,276.757 C163.426,276.814 163.293,276.874 163.161,276.932 C161.662,277.593 160.112,278.276 158.639,278.975 C158.034,279.262 157.331,279.596 156.588,279.973 C156.981,295.06 157.351,310.147 157.677,325.235 C158.496,324.823 159.255,324.458 159.91,324.143 C160.56,323.832 161.259,323.52 161.98,323.199 M157.92,335.551 C158.041,341.608 158.153,347.666 158.252,353.725 C158.279,355.329 158.342,356.601 160.025,356.601 L160.086,356.601 C161.77,356.601 161.833,355.329 161.859,353.725 C161.968,347.094 162.093,340.463 162.226,333.831 C160.752,334.392 159.301,334.951 157.92,335.551 M153.963,170.834 C154.041,175.078 154.136,179.322 154.223,183.565 C157.791,182.847 161.707,182.441 165.948,182.354 C166.027,178.514 166.113,174.674 166.183,170.834 C164.294,171.59 162.233,172.01 160.073,172.01 C157.913,172.01 155.853,171.59 153.963,170.834 M163.968,262.019 C161.848,263.185 159.6,264.222 157.261,265.297 C156.919,265.454 156.577,265.611 156.235,265.769 C156.018,257.594 155.8,249.418 155.584,241.243 L155.49,237.659 C155.177,225.663 154.877,213.666 154.598,201.669 C158.391,200.426 162.64,200.056 165.548,199.967 C165.072,220.651 164.516,241.335 163.968,262.019 M202.198,205.855 C201.576,205.172 200.658,204.995 199.797,204.801 C198.881,204.596 198.106,204.259 197.354,203.694 C196.673,203.182 196.083,202.551 195.394,202.05 C195.524,203.825 196.556,205.555 198.25,206.226 C199.224,206.611 200.262,206.456 201.24,206.759 C201.953,206.981 202.358,207.628 202.861,208.127 C202.923,207.301 202.772,206.482 202.198,205.855 M185.467,192.074 C185.418,191.23 184.688,190.58 183.844,190.628 C183,190.677 182.349,191.407 182.398,192.251 C182.447,193.095 183.177,193.746 184.021,193.697 C184.865,193.648 185.515,192.918 185.467,192.074 M195.193,200.416 C193.659,204.021 178.593,202.988 172.765,200.591 C171.606,200.114 170.017,198.878 168.676,197.327 C157.779,197.043 141.401,199.707 143.77,213.713 C144.604,218.642 148.412,221.964 152.526,224.525 C152.636,228.869 152.747,233.2 152.861,237.519 C149.11,235.856 145.442,234.033 142.115,231.539 C134.552,225.868 130.194,217.065 131.586,207.539 C134.558,187.201 157.01,183.898 174.161,185.222 C176.903,184.512 179.899,184.352 182.387,185.102 C188.415,186.92 196.393,197.594 195.193,200.416 M166.291,300.001 C166.075,299.882 165.857,299.768 165.639,299.65 C165.575,302.252 165.516,304.858 165.454,307.464 C166.239,307.909 167.011,308.375 167.754,308.888 C170.904,311.063 173.887,314.819 171.688,318.747 C169.606,322.465 164.413,324.185 160.792,325.924 C154.179,329.098 143.216,334.715 146.134,343.913 C150.793,329.222 176.758,333.874 178.447,316.979 C179.262,308.818 172.727,303.573 166.291,300.001 M183.675,250.263 C184.374,256.122 182.193,261.763 178.016,265.869 C172.444,271.347 164.736,273.911 157.821,277.19 C153.699,279.144 147.552,282.181 147.457,286.997 C147.338,290.3 151.756,292.547 154.336,293.932 C154.408,296.814 154.481,299.691 154.551,302.58 C150.408,300.854 146.386,298.941 143.127,295.826 C137.428,290.381 138.025,282.17 143.141,276.545 C149.674,269.362 159.941,267.228 167.832,262.008 C175.108,257.193 176.216,249.961 168.629,245.091 C168.121,244.765 167.606,244.452 167.087,244.147 C167.191,240.183 167.295,236.2 167.399,232.209 C169.671,233.384 171.896,234.64 174.003,236.096 C178.905,239.484 182.947,244.161 183.675,250.263" fill="#50A772"/>
    <text transform="matrix(1, 0, -0, 1, 215.699, 249.731)">
      <tspan x="-153.599" y="31.5" font-family="Helvetica-Bold" font-size="86.397" fill="#D7D7D7">R   Me</tspan>
      <tspan x="100.825" y="31.5" font-family="Helvetica-Bold" font-size="86.397" kerning="0" fill="#D7D7D7">d</tspan>
    </text>
  </g>
</svg>
