<?xml version="1.0" encoding="UTF-8"?>
<!DOCTYPE svg PUBLIC "-//W3C//DTD SVG 1.1//EN" "http://www.w3.org/Graphics/SVG/1.1/DTD/svg11.dtd">
<svg version="1.1" xmlns="http://www.w3.org/2000/svg" xmlns:xlink="http://www.w3.org/1999/xlink" x="0" y="0" width="387" height="450" viewBox="0, 0, 387, 450">
  <g id="Layer_1">
    <g>
      <path d="M195.262,0.246 L194.921,-0 L192.856,-0 L192.439,0.284 C187.605,3.634 182.597,6.726 177.437,9.547 C118.355,43.644 59.462,78.043 0.305,112.007 C-0.074,181.887 0.305,251.785 0.115,321.664 C0.115,327.119 0.229,332.575 0.305,338.03 C56.545,370.233 112.558,403.003 168.723,435.452 C176.793,440.377 184.995,444.128 192.42,450 L194.58,450 C201.911,445.056 209.829,440.756 217.481,436.286 C273.835,403.515 330.701,370.972 386.885,338.011 L386.885,111.856 L219.66,15.003 C211.458,10.096 202.971,5.872 195.262,0.246 z M362.885,323.047 C306.492,355.628 250.195,388.418 193.746,420.904 Q109.281,371.805 24.703,322.933 L24.703,127.086 Q102.576,81.775 180.619,36.711 C184.938,34.191 189.295,31.502 193.765,29.342 C200.054,32.354 206.021,36.199 212.083,39.647 Q287.493,83.215 362.866,126.953 Q363.074,225.019 362.885,323.047 z" fill="#000000"/>
      <path d="M152.432,141.899 C154.105,137.398 152.281,132.347 148.119,129.953 C143.956,127.559 138.674,128.522 135.624,132.23 C132.574,135.939 132.649,141.308 135.801,144.93 C138.094,147.514 141.57,148.714 144.97,148.095 C148.369,147.475 151.198,145.126 152.432,141.899 z" fill="#000000"/>
      <path d="M143.965,154.382 C149.061,154.249 151.542,150.953 155.16,147.979 C150.5,149.154 145.329,151.427 140.555,150.442 C137.733,150.082 134.873,149.59 132.145,149.116 C136.009,151.844 138.813,154.856 143.965,154.382 z M137.979,167.111 L148.455,165.937 C148.587,162.849 148.682,159.743 148.796,156.655 L137.752,156.523 C137.809,160.065 137.885,163.588 137.979,167.111 z M159.403,168.475 C148.644,168.475 134.645,168.153 125.742,175.048 C116.839,181.944 115.021,195.033 121.215,204.144 C125.004,210.149 130.686,212.706 136.767,215.983 C136.634,212.195 136.502,208.406 136.331,204.731 C132.543,200.716 127.978,197.798 128.413,191.623 C128.773,184.046 135.99,181.356 142.45,180.125 C149.591,178.534 154.592,182.758 161.279,184.236 C165.939,185.031 171.034,183.876 175.694,183.402 C172.455,176.223 168.42,168.437 159.403,168.475 z M164.65,176.526 L163.419,175.825 L163.419,174.423 L164.632,173.703 L165.863,174.385 L165.863,175.806 z" fill="#000000"/>
      <path d="M148.038,182.057 Q143.245,182.663 138.434,183.194 C138.623,202.496 139.286,221.799 139.798,241.101 C142.109,239.946 144.42,238.828 146.75,237.692 C147.034,219.147 147.716,200.621 148.038,182.057 z M175.239,185.353 C174.614,187.626 179.179,189.558 180.79,188.214 C181.49,185.959 176.812,184.273 175.239,185.353 z M100.681,229.376 C104.692,226.302 107.092,221.574 107.206,216.522 C107.32,211.47 105.136,206.639 101.269,203.387 C97.177,199.939 92.517,199.901 87.422,199.598 C78.462,199.446 69.483,199.598 60.523,199.598 L60.523,256.426 L72.874,256.426 L72.874,234.414 C78.14,234.926 87.251,233.051 91.324,236.953 C93.407,242.958 92.972,250.213 93.767,256.464 L107.974,256.464 C106.247,250.413 105.286,244.17 105.114,237.881 C105.171,234.301 102.822,232.236 100.681,229.376 z M90.396,223.693 C84.826,224.962 78.67,224.432 72.968,224.47 L72.968,210.414 C78.651,210.414 84.694,209.903 90.244,211.134 C95.529,212.877 95.87,221.912 90.452,223.636 z M197.819,199.617 L179.918,199.617 L179.918,256.596 L191.757,256.596 C191.966,243.128 191.492,229.622 192.155,216.173 C195.224,229.641 198.141,243.147 201.153,256.634 L213.56,256.634 C216.61,243.488 219.148,230.115 222.691,217.215 C223.24,230.361 222.88,243.469 222.975,256.634 L234.795,256.634 C234.946,237.692 234.795,218.749 234.795,199.674 L217.008,199.674 C213.787,213.502 210.757,227.368 207.536,241.158 C204.146,227.33 201.191,213.426 197.819,199.617 z M313.028,254.361 L314.922,256.634 L325.587,256.634 L325.587,199.806 L313.672,199.693 Q313.672,208.728 313.785,217.726 C306.208,211.267 294.653,211.589 288.895,220.132 C282.833,229.603 282.663,245.079 290.789,253.509 C297.135,259.684 305.924,258.869 313.028,254.361 z M301.833,224.621 C304.884,223.093 308.587,223.879 310.755,226.515 C314.543,230.74 314.789,239.775 311.38,244.265 C309.913,246.373 307.478,247.595 304.911,247.511 C302.344,247.427 299.995,246.048 298.669,243.848 C295.411,238.525 295.79,228.069 301.833,224.659 z" fill="#000000"/>
      <path d="M149.743,211.38 L149.743,221.193 C152.773,224.981 157.414,227.576 154.649,233.107 C149.345,241.48 135.82,242.977 128.849,250.156 C124.276,254.066 123.13,260.676 126.121,265.897 C128.735,270.292 133.869,271.978 138.15,274.364 C138.15,272.129 138.055,269.913 137.979,267.678 C135.63,264.704 129.682,261.881 132.808,257.449 C139.703,249.663 152.944,248.565 160.104,240.4 C165.251,234.835 165.819,226.434 161.468,220.226 C158.57,215.699 154.232,213.975 149.743,211.38 z M272.604,255.327 C277.529,252.656 278.95,248.224 281.356,243.545 C277.77,243.301 274.17,243.371 270.596,243.753 C266.391,244.89 263.588,249.436 258.89,247.693 C255.101,246.405 254.154,242.2 252.43,239.074 C262.072,238.866 271.695,238.98 281.337,238.961 C280.863,230.569 280.977,223.125 274.025,217.252 C265.747,210.679 249.551,211.74 244.437,222.026 C240.648,228.883 240.25,238.165 242.353,245.61 C245.933,257.316 262.83,261.029 272.604,255.327 z M260.216,223.371 C265.728,222.727 266.865,226.97 269.536,230.569 C263.853,230.796 258.265,230.815 252.601,230.569 C254.533,228.182 256.541,223.068 260.216,223.371 z" fill="#000000"/>
      <path d="M145.386,289.196 C145.822,276.429 146.125,263.605 146.106,250.8 C143.814,252.694 140.271,253.111 140.423,256.596 C140.101,269.439 140.915,282.415 141.313,295.277 C143.302,293.383 145.424,292.341 145.386,289.196 z" fill="#000000"/>
      <path d="M147.886,271.618 C148.057,273.701 148.246,275.766 148.492,277.831 C150.652,281.335 156.865,285.408 153.058,289.765 C147.602,294.993 138.548,296.773 133.206,302.437 C131.678,304.875 130.408,307.465 129.417,310.166 C133.452,306.777 137.909,303.924 142.677,301.68 C147.147,299.672 152.792,298.005 156.373,294.614 C160.215,290.802 160.994,284.874 158.267,280.199 C156.013,276.429 151.334,273.986 147.886,271.618 z M144.988,302.305 C143.814,303.081 142.658,303.858 141.522,304.673 C141.095,311.305 141.419,317.965 142.488,324.524 C146.39,318.406 144.761,309.294 144.988,302.305 z" fill="#000000"/>
    </g>
  </g>
</svg>
