<?xml version="1.0" encoding="UTF-8"?>
<!DOCTYPE svg PUBLIC "-//W3C//DTD SVG 1.1//EN" "http://www.w3.org/Graphics/SVG/1.1/DTD/svg11.dtd">
<svg version="1.1" xmlns="http://www.w3.org/2000/svg" xmlns:xlink="http://www.w3.org/1999/xlink" x="0" y="0" width="550" height="350" viewBox="0, 0, 550, 350">
  <g id="g884">
    <g id="XMLID_200_">
      <path d="M32.361,318.178 C27.513,314.048 25,308.842 25,302.379 L25,297.531 C25,291.068 27.513,285.682 32.361,281.732 C37.208,277.603 42.953,275.628 49.417,275.628 C57.316,275.628 63.779,278.321 68.986,283.887 L59.291,291.248 C56.418,288.375 53.187,286.939 49.596,286.939 C46.364,286.939 43.492,288.196 40.978,290.889 C38.465,293.582 37.388,296.634 37.388,300.224 C37.388,303.815 38.465,306.867 40.799,309.56 C43.133,312.253 46.005,313.51 49.596,313.51 C53.187,313.51 56.418,312.074 59.291,309.201 L68.986,316.562 C63.779,322.127 57.316,324.82 49.417,324.82 C42.953,324.282 37.208,322.127 32.361,318.178 z" fill="#FFFFFF" id="XMLID_222_"/>
      <path d="M83.169,317.46 C78.501,312.612 75.987,306.688 75.987,299.686 C75.987,292.504 78.321,286.58 83.169,281.912 C87.837,277.244 93.761,274.731 100.943,274.731 C108.124,274.731 114.048,277.065 118.716,281.912 C123.384,286.58 125.898,292.504 125.898,299.686 C125.898,306.867 123.564,312.792 118.716,317.46 C114.048,322.127 108.124,324.641 100.943,324.641 C93.761,324.641 87.837,322.307 83.169,317.46 z M100.763,312.792 C104.533,312.792 107.406,311.535 109.74,309.022 C112.074,306.508 113.151,303.456 113.151,299.686 C113.151,295.916 112.074,292.864 109.74,290.35 C107.406,287.837 104.354,286.58 100.583,286.58 C96.993,286.58 93.941,287.837 91.607,290.35 C89.273,292.864 88.196,295.916 88.196,299.686 C88.196,303.456 89.273,306.508 91.607,309.022 C94.12,311.535 97.172,312.792 100.763,312.792 z" fill="#FFFFFF" id="XMLID_219_"/>
      <path d="M148.698,293.043 L148.698,324.102 L135.054,324.102 L135.054,276.706 L148.698,275.269 L148.698,279.758 C151.93,276.885 155.88,275.449 160.368,275.449 C166.472,275.449 171.32,277.244 174.551,281.014 C177.783,284.785 179.399,289.093 179.399,293.941 L179.399,324.282 L165.754,324.282 L165.754,297.352 C165.754,294.12 164.856,291.607 163.241,289.811 C161.625,288.016 159.111,287.118 155.88,286.939 C153.187,287.118 150.673,289.273 148.698,293.043 z" fill="#FFFFFF" id="XMLID_217_"/>
      <path d="M218.537,276.706 C221.05,277.783 223.384,279.399 225.718,281.553 L218.178,290.171 C216.023,287.478 213.151,286.221 209.919,286.221 C206.688,286.221 204.354,286.759 203.276,288.016 C202.199,289.273 202.199,290.35 203.276,291.248 C204.354,292.325 206.508,293.043 209.919,293.761 C214.767,294.3 218.716,295.557 221.768,297.89 C224.82,300.224 226.436,304.174 226.436,309.919 C226.436,314.587 224.641,318.178 221.05,320.691 C217.46,323.205 213.151,324.461 208.303,324.461 C203.636,324.461 199.865,323.743 196.813,322.487 C193.761,321.23 191.068,319.434 188.914,317.101 L196.454,308.483 C198.609,311.176 202.02,312.612 206.688,313.151 C210.458,313.151 212.792,312.612 213.869,311.355 C214.946,310.099 215.126,308.842 214.408,307.765 C213.689,306.508 210.996,305.79 206.688,305.251 C202.738,304.713 199.147,303.636 195.736,301.661 C192.504,299.686 190.709,295.916 190.709,290.35 C190.709,285.323 192.504,281.373 196.275,278.86 C200.045,276.167 203.815,274.91 207.944,274.91 C212.433,275.09 216.023,275.628 218.537,276.706 z" fill="#FFFFFF" id="XMLID_215_"/>
      <path d="M240.619,317.46 C235.952,312.612 233.438,306.688 233.438,299.686 C233.438,292.504 235.772,286.58 240.619,281.912 C245.287,277.244 251.212,274.731 258.393,274.731 C265.574,274.731 271.499,277.065 276.167,281.912 C280.835,286.58 283.348,292.504 283.348,299.686 C283.348,306.867 281.014,312.792 276.167,317.46 C271.499,322.127 265.574,324.641 258.393,324.641 C251.212,324.641 245.287,322.307 240.619,317.46 z M258.393,312.792 C262.163,312.792 265.036,311.535 267.37,309.022 C269.704,306.508 270.781,303.456 270.781,299.686 C270.781,295.916 269.704,292.864 267.37,290.35 C265.036,287.837 261.984,286.58 258.214,286.58 C254.623,286.58 251.571,287.837 249.237,290.35 C246.903,292.864 245.826,295.916 245.826,299.686 C245.826,303.456 246.903,306.508 249.237,309.022 C251.571,311.535 254.623,312.792 258.393,312.792 z" fill="#FFFFFF" id="XMLID_212_"/>
      <path d="M305.251,280.655 C308.662,277.065 312.971,275.269 317.998,275.269 C319.614,275.269 321.05,275.449 322.487,275.628 L320.332,289.093 C318.716,287.657 316.382,286.939 313.51,286.759 C310.278,286.939 307.406,289.452 305.251,293.941 L305.251,323.923 L291.607,323.923 L291.607,276.526 L305.251,275.09 z" fill="#FFFFFF" id="XMLID_210_"/>
      <path d="M353.546,324.282 C347.98,324.282 343.671,322.666 340.44,319.614 C337.208,316.562 335.592,312.612 335.592,307.585 L335.592,286.4 L328.232,286.4 L328.232,275.449 L335.592,275.449 L335.592,262.163 L349.237,260.727 L349.237,275.449 L356.598,275.449 L356.598,286.4 L349.237,286.4 L349.237,305.61 C349.237,308.303 349.776,310.099 350.853,311.176 C351.93,312.253 353.366,312.792 355.162,312.792 C355.7,312.792 356.957,312.612 358.752,312.074 L361.625,321.948 C359.291,323.384 356.598,324.282 353.546,324.282 z" fill="#FFFFFF" id="XMLID_208_"/>
      <path d="M371.32,258.752 C372.576,257.496 374.372,256.777 376.526,256.777 C378.86,256.777 380.655,257.496 381.912,258.752 C383.169,260.009 383.887,261.625 383.887,263.6 C383.887,265.574 383.169,267.19 381.912,268.447 C380.655,269.704 378.86,270.422 376.526,270.422 C374.192,270.422 372.397,269.704 371.14,268.447 C369.883,267.19 369.165,265.574 369.165,263.6 C369.345,261.625 370.063,260.009 371.32,258.752 z M383.528,324.282 L383.528,275.449 L369.883,275.449 L369.883,324.282 z" fill="#FFFFFF" id="XMLID_205_"/>
      <path d="M425,306.867 L425,275.269 L438.645,275.269 L438.645,324.102 L425,324.102 L425,319.614 C421.768,322.487 417.819,323.923 413.33,323.923 C407.226,323.923 402.379,322.127 399.147,318.357 C395.916,314.587 394.3,310.278 394.3,305.431 L394.3,275.09 L407.944,275.09 L407.944,302.02 C407.944,305.251 408.842,307.765 410.458,309.56 C412.074,311.355 414.587,312.253 417.819,312.433 C420.512,312.433 422.846,310.458 425,306.867 z" fill="#FFFFFF" id="XMLID_203_"/>
      <path d="M463.959,292.864 L463.959,324.102 L450.314,324.102 L450.314,276.706 L463.959,275.269 L463.959,279.578 C467.011,276.706 470.961,275.269 475.628,275.269 C481.732,275.269 486.58,277.065 489.811,280.835 C493.402,277.065 498.788,275.269 505.969,275.269 C512.074,275.269 516.921,277.065 520.153,280.835 C523.384,284.605 525,288.914 525,293.761 L525,324.102 L511.355,324.102 L511.355,297.172 C511.355,293.941 510.637,291.427 509.201,289.632 C507.765,287.837 505.431,286.939 502.02,286.759 C499.327,286.939 496.993,288.734 495.018,292.145 C494.838,293.223 494.838,294.12 494.838,295.197 L494.838,323.923 L481.194,323.923 L481.194,296.993 C481.194,293.761 480.476,291.248 479.039,289.452 C477.603,287.657 475.269,286.759 471.858,286.58 C468.627,287.118 466.113,289.093 463.959,292.864 z" fill="#FFFFFF" id="XMLID_201_"/>
    </g>
    <g id="XMLID_865_">
      <path d="M304.533,110.278 C304.533,123.564 299.327,132.002 288.914,135.952 L309.74,165.395 L287.118,165.395 L268.806,139.004 L256.059,139.004 L256.059,165.395 L237.567,165.395 L237.567,82.81 L268.806,82.81 C281.553,82.81 290.709,84.964 296.275,89.273 C301.84,93.761 304.533,100.763 304.533,110.278 z M282.271,120.153 C284.605,118.178 285.682,114.946 285.682,110.458 C285.682,105.969 284.425,102.917 282.092,101.302 C279.758,99.686 275.628,98.788 269.704,98.788 L256.059,98.788 L256.059,123.205 L269.524,123.205 C275.808,123.205 280.117,122.127 282.271,120.153 z" fill="#FFFFFF" id="XMLID_2_"/>
      <path d="M219.434,204.533 L219.434,204.533 L219.434,204.533 C214.587,201.661 212.792,195.377 215.664,190.53 L215.664,190.53 C218.537,185.682 224.82,183.887 229.668,186.759 L229.668,186.759 C234.515,189.632 236.311,195.916 233.438,200.763 L233.438,200.763 C231.463,203.995 228.052,205.969 224.461,205.969 L224.461,205.969 C222.846,205.79 221.05,205.431 219.434,204.533 z M301.481,200.583 C298.609,195.736 300.224,189.452 305.251,186.58 L305.251,186.58 C310.099,183.707 316.382,185.503 319.255,190.35 L319.255,190.35 C322.127,195.197 320.332,201.481 315.485,204.354 L315.485,204.354 C313.869,205.251 312.074,205.79 310.278,205.79 L310.278,205.79 C306.867,205.79 303.456,203.995 301.481,200.583 z M184.425,169.345 C181.553,164.497 183.348,158.214 188.196,155.341 L188.196,155.341 C193.043,152.469 199.327,154.264 202.199,159.111 L202.199,159.111 C205.072,163.959 203.456,170.242 198.429,173.115 L198.429,173.115 C196.813,174.013 195.018,174.551 193.223,174.551 L193.223,174.551 C189.632,174.551 186.221,172.756 184.425,169.345 z M342.953,121.23 C342.953,121.05 342.953,120.871 342.953,120.871 L342.953,120.871 C342.953,115.126 347.442,110.637 353.187,110.637 L353.187,110.637 C358.752,110.637 363.42,115.126 363.42,120.871 L363.42,120.871 C363.42,120.871 363.42,121.05 363.42,121.05 L363.42,121.05 C363.42,121.05 363.42,121.23 363.42,121.23 L363.42,121.23 L363.42,121.23 L363.42,121.23 C363.42,126.795 358.752,131.463 353.187,131.463 L353.187,131.463 C347.621,131.463 342.953,126.975 342.953,121.23 z M188.016,87.478 C183.169,84.605 181.373,78.321 184.246,73.474 L184.246,73.474 C187.118,68.627 193.402,66.831 198.25,69.704 L198.25,69.704 C203.097,72.576 204.892,78.86 202.02,83.707 L202.02,83.707 C200.045,87.118 196.634,88.914 193.043,88.914 L193.043,88.914 C191.248,88.734 189.632,88.375 188.016,87.478 z M304.892,55.7 C300.045,52.828 298.25,46.544 301.122,41.697 L301.122,41.697 C303.995,36.849 310.278,35.054 315.126,37.926 L315.126,37.926 C319.973,40.799 321.768,47.083 318.896,51.93 L318.896,51.93 C317.101,55.162 313.51,57.136 309.919,57.136 L309.919,57.136 C308.303,56.957 306.508,56.598 304.892,55.7 z M267.19,45.646 C261.445,45.646 256.957,40.978 256.957,35.413 L256.957,35.413 C256.957,29.847 261.625,25.18 267.19,25.18 L267.19,25.18 C272.935,25.18 277.424,29.668 277.424,35.413 L277.424,35.413 C277.424,40.978 272.935,45.646 267.19,45.646 z" fill="#FFFFFF" id="XMLID_871_"/>
      <path d="M257.316,207.047 C257.316,201.302 261.984,196.813 267.549,196.813 L267.549,196.813 C273.115,196.813 277.783,201.302 277.783,207.047 L277.783,207.047 C277.783,212.792 273.115,217.28 267.549,217.28 L267.549,217.28 C261.804,217.28 257.316,212.612 257.316,207.047 z" fill="#FFFFFF" id="XMLID_870_"/>
      <path d="M336.67,172.935 C331.822,170.063 330.027,163.779 332.899,158.932 L332.899,158.932 C335.772,154.084 342.056,152.289 346.903,155.162 L346.903,155.162 C351.75,158.034 353.546,164.318 350.673,169.165 L350.673,169.165 C348.878,172.397 345.287,174.372 341.697,174.372 L341.697,174.372 C340.081,174.372 338.285,173.833 336.67,172.935 z" fill="#FFFFFF" id="XMLID_869_"/>
      <path d="M171.32,121.409 C171.32,115.844 175.987,111.176 181.553,111.176 L181.553,111.176 C187.298,111.176 191.786,115.664 191.786,121.409 L191.786,121.409 C191.786,127.154 187.118,131.643 181.553,131.643 L181.553,131.643 C175.987,131.643 171.499,127.154 171.32,121.409 z" fill="#FFFFFF" id="XMLID_868_"/>
      <path d="M332.72,83.169 C329.847,78.321 331.463,72.038 336.49,69.165 L336.49,69.165 C341.337,66.293 347.621,67.908 350.494,72.935 L350.494,72.935 C353.366,77.783 351.75,84.066 346.723,86.939 L346.723,86.939 C345.108,87.837 343.312,88.375 341.517,88.375 L341.517,88.375 C338.106,88.375 334.695,86.4 332.72,83.169 z" fill="#FFFFFF" id="XMLID_867_"/>
      <path d="M215.485,52.11 C212.612,47.262 214.228,40.978 219.255,38.106 L219.255,38.106 C224.102,35.233 230.386,36.849 233.258,41.876 L233.258,41.876 C236.131,46.724 234.515,53.007 229.488,55.88 L229.488,55.88 C227.873,56.777 226.077,57.316 224.282,57.316 L224.282,57.316 C220.871,57.316 217.46,55.521 215.485,52.11 z" fill="#FFFFFF" id="XMLID_866_"/>
    </g>
  </g>
</svg>
