<?xml version="1.0" encoding="UTF-8"?>
<!DOCTYPE svg PUBLIC "-//W3C//DTD SVG 1.1//EN" "http://www.w3.org/Graphics/SVG/1.1/DTD/svg11.dtd">
<svg version="1.1" xmlns="http://www.w3.org/2000/svg" xmlns:xlink="http://www.w3.org/1999/xlink" x="0" y="0" width="150" height="150" viewBox="0, 0, 150, 150">
  <g id="XMLID_1_">
    <g>
      <path d="M96.68,68.679 C96.68,76.477 93.608,81.439 87.465,83.684 L99.752,100.933 L86.519,100.933 L75.768,85.574 L68.325,85.574 L68.325,100.933 L57.573,100.933 L57.573,52.611 L75.886,52.611 C83.448,52.611 88.764,53.911 91.954,56.392 C95.144,58.991 96.68,63.008 96.68,68.679 z M83.684,74.35 C84.983,73.169 85.692,71.278 85.692,68.679 C85.692,66.08 84.983,64.308 83.566,63.362 C82.148,62.417 79.785,61.945 76.359,61.945 L68.325,61.945 L68.325,76.122 L76.241,76.122 C79.903,76.122 82.384,75.532 83.684,74.35 z" fill="#0047BA" id="XMLID_2_"/>
      <path d="M46.94,123.736 L46.94,123.736 L46.94,123.736 C44.104,122.082 43.041,118.419 44.695,115.466 L44.695,115.466 C46.349,112.63 50.012,111.567 52.965,113.221 L52.965,113.221 C55.801,114.875 56.864,118.538 55.21,121.491 L55.21,121.491 C54.029,123.382 52.02,124.445 50.012,124.445 L50.012,124.445 C48.948,124.563 47.885,124.327 46.94,123.736 z M95.026,121.491 C93.372,118.656 94.317,114.875 97.271,113.221 L97.271,113.221 C100.106,111.567 103.769,112.512 105.423,115.466 L105.423,115.466 C107.077,118.301 106.132,122.082 103.178,123.736 L103.178,123.736 C102.233,124.327 101.17,124.563 100.225,124.563 L100.225,124.563 C98.098,124.563 96.089,123.5 95.026,121.491 z M26.382,103.296 C24.728,100.461 25.673,96.68 28.627,95.026 L28.627,95.026 C31.462,93.372 35.125,94.317 36.897,97.271 L36.897,97.271 C38.551,100.106 37.606,103.887 34.652,105.541 L34.652,105.541 C33.707,106.132 32.644,106.368 31.699,106.368 L31.699,106.368 C29.454,106.25 27.445,105.187 26.382,103.296 z M119.246,75.059 C119.246,74.941 119.246,74.941 119.246,74.823 L119.246,74.823 C119.246,71.515 121.964,68.797 125.272,68.797 L125.272,68.797 C128.58,68.797 131.298,71.515 131.298,74.823 L131.298,74.823 C131.298,74.823 131.298,74.941 131.298,74.941 L131.298,74.941 C131.298,74.941 131.298,75.059 131.298,75.059 L131.298,75.059 L131.298,75.059 L131.298,75.059 C131.298,78.367 128.58,81.085 125.272,81.085 L125.272,81.085 C121.964,80.966 119.246,78.367 119.246,75.059 z M28.391,55.21 C25.555,53.556 24.492,49.894 26.146,46.94 L26.146,46.94 C27.8,44.104 31.462,43.041 34.416,44.695 L34.416,44.695 C37.252,46.349 38.315,50.012 36.661,52.847 L36.661,52.847 C35.48,54.738 33.471,55.919 31.462,55.919 L31.462,55.919 C30.399,56.037 29.336,55.801 28.391,55.21 z M97.035,36.661 C94.199,35.007 93.136,31.344 94.79,28.391 L94.79,28.391 C96.444,25.555 100.106,24.492 103.06,26.146 L103.06,26.146 C105.896,27.8 106.959,31.462 105.305,34.416 L105.305,34.416 C104.242,36.307 102.233,37.37 100.106,37.37 L100.106,37.37 C99.043,37.37 97.98,37.134 97.035,36.661 z M74.941,30.754 C71.633,30.754 68.915,28.036 68.915,24.728 L68.915,24.728 C68.915,21.42 71.633,18.703 74.941,18.703 L74.941,18.703 C78.249,18.703 80.966,21.42 80.966,24.728 L80.966,24.728 C80.848,28.036 78.249,30.754 74.941,30.754 z" fill="#0047BA" id="XMLID_954_"/>
      <path d="M69.034,125.272 C69.034,121.964 71.751,119.246 75.059,119.246 L75.059,119.246 C78.367,119.246 81.085,121.964 81.085,125.272 L81.085,125.272 C81.085,128.58 78.367,131.298 75.059,131.298 L75.059,131.298 C71.751,131.298 69.034,128.58 69.034,125.272 z" fill="#969CDE" id="XMLID_953_"/>
      <path d="M115.584,105.305 C112.748,103.651 111.685,99.988 113.339,97.035 L113.339,97.035 C114.993,94.199 118.656,93.136 121.609,94.79 L121.609,94.79 C124.445,96.444 125.508,100.106 123.854,103.06 L123.854,103.06 C122.791,104.951 120.782,106.014 118.656,106.014 L118.656,106.014 C117.474,106.132 116.529,105.896 115.584,105.305 z" fill="#969CDE" id="XMLID_952_"/>
      <path d="M18.702,75.177 C18.702,71.869 21.42,69.152 24.728,69.152 L24.728,69.152 C28.036,69.152 30.754,71.869 30.754,75.177 L30.754,75.177 C30.754,78.485 28.036,81.203 24.728,81.203 L24.728,81.203 C21.42,81.203 18.821,78.485 18.702,75.177 z" fill="#969CDE" id="XMLID_951_"/>
      <path d="M113.221,52.729 C111.567,49.894 112.512,46.231 115.348,44.459 L115.348,44.459 C118.183,42.805 121.964,43.75 123.618,46.585 L123.618,46.585 C125.272,49.421 124.327,53.202 121.491,54.856 L121.491,54.856 C120.546,55.447 119.483,55.683 118.538,55.683 L118.538,55.683 C116.411,55.683 114.402,54.619 113.221,52.729 z" fill="#969CDE" id="XMLID_950_"/>
      <path d="M44.577,34.534 C42.923,31.699 43.868,27.918 46.704,26.264 L46.704,26.264 C49.539,24.61 53.32,25.555 54.974,28.391 L54.974,28.391 C56.628,31.226 55.683,35.007 52.847,36.661 L52.847,36.661 C51.902,37.252 50.839,37.488 49.775,37.488 L49.775,37.488 C47.767,37.606 45.758,36.543 44.577,34.534 z" fill="#969CDE" id="XMLID_949_"/>
    </g>
  </g>
</svg>
