<?xml version="1.0" encoding="UTF-8"?>
<!DOCTYPE svg PUBLIC "-//W3C//DTD SVG 1.1//EN" "http://www.w3.org/Graphics/SVG/1.1/DTD/svg11.dtd">
<svg version="1.1" xmlns="http://www.w3.org/2000/svg" xmlns:xlink="http://www.w3.org/1999/xlink" x="0" y="0" width="1115.044" height="361.062" viewBox="0, 0, 557.522, 180.531">
  <g id="Background">
    <rect x="0" y="0" width="557.522" height="180.531" fill="#FFFFFF"/>
  </g>
  <g id="Layer_1">
    <path d="M152.711,88.811 C148.77,85.526 146.799,81.256 146.799,76 L146.799,72.058 C146.799,66.802 148.77,62.532 152.711,59.247 C156.653,55.963 161.265,54.32 166.547,54.32 C172.854,54.32 178.096,56.554 182.275,61.021 L174.392,66.934 C172.026,64.568 169.398,63.386 166.508,63.386 C163.879,63.386 161.58,64.438 159.609,66.54 C157.638,68.642 156.653,71.139 156.653,74.029 C156.653,76.92 157.573,79.416 159.412,81.519 C161.252,83.621 163.616,84.672 166.508,84.672 C169.398,84.672 172.026,83.489 174.392,81.125 L182.275,87.037 C178.07,91.505 172.814,93.738 166.508,93.738 C161.252,93.738 156.653,92.096 152.711,88.811" fill="#222222"/>
    <path d="M207.937,84.594 C210.933,84.594 213.363,83.589 215.23,81.578 C217.095,79.568 218.028,77.064 218.028,74.069 C218.028,71.073 217.095,68.564 215.23,66.54 C213.363,64.517 210.92,63.505 207.898,63.505 C204.928,63.505 202.51,64.517 200.644,66.54 C198.779,68.564 197.846,71.073 197.846,74.069 C197.846,77.064 198.779,79.568 200.644,81.578 C202.51,83.589 204.941,84.594 207.937,84.594 M193.628,88.358 C189.791,84.509 187.873,79.732 187.873,74.03 C187.873,68.301 189.791,63.518 193.628,59.681 C197.465,55.845 202.247,53.926 207.976,53.926 C213.705,53.926 218.488,55.845 222.325,59.681 C226.161,63.518 228.08,68.301 228.08,74.03 C228.08,79.758 226.161,84.541 222.325,88.378 C218.488,92.215 213.705,94.133 207.976,94.133 C202.247,94.133 197.465,92.208 193.628,88.358" fill="#222222"/>
    <path d="M246.607,68.668 L246.607,93.738 L235.57,93.738 L235.57,55.463 L246.607,54.28 L246.607,57.867 C249.261,55.502 252.414,54.319 256.067,54.319 C261.059,54.319 264.87,55.831 267.498,58.853 C270.125,61.875 271.44,65.357 271.44,69.298 L271.44,93.738 L260.404,93.738 L260.404,72.057 C260.404,69.43 259.746,67.394 258.432,65.948 C257.117,64.503 255.133,63.741 252.479,63.662 C250.194,63.82 248.236,65.488 246.607,68.668" fill="#222222"/>
    <path d="M302.975,55.424 C305.024,56.317 306.942,57.645 308.73,59.405 L302.581,66.343 C300.793,64.214 298.56,63.15 295.88,63.15 C293.224,63.15 291.451,63.642 290.558,64.628 C289.664,65.613 289.664,66.507 290.558,67.308 C291.451,68.11 293.224,68.774 295.88,69.299 C299.795,69.668 303,70.783 305.497,72.65 C307.994,74.516 309.242,77.761 309.242,82.386 C309.242,86.117 307.771,89.008 304.828,91.058 C301.883,93.108 298.455,94.133 294.539,94.133 C290.807,94.133 287.7,93.601 285.216,92.537 C282.733,91.471 280.598,90.047 278.811,88.259 L284.921,81.362 C286.707,83.49 289.48,84.725 293.238,85.067 C296.26,85.067 298.212,84.574 299.092,83.589 C299.972,82.603 300.103,81.617 299.486,80.632 C298.869,79.646 296.786,78.983 293.238,78.641 C290.032,78.273 287.095,77.288 284.428,75.684 C281.761,74.082 280.427,71.06 280.427,66.619 C280.427,62.546 281.945,59.438 284.98,57.296 C288.015,55.155 291.135,54.083 294.342,54.083 C298.048,54.083 300.924,54.531 302.975,55.424" fill="#222222"/>
    <path d="M335.061,84.594 C338.057,84.594 340.488,83.589 342.353,81.578 C344.219,79.568 345.152,77.064 345.152,74.069 C345.152,71.073 344.219,68.564 342.353,66.54 C340.488,64.517 338.043,63.505 335.022,63.505 C332.052,63.505 329.634,64.517 327.769,66.54 C325.903,68.564 324.97,71.073 324.97,74.069 C324.97,77.064 325.903,79.568 327.769,81.578 C329.634,83.589 332.065,84.594 335.061,84.594 M320.752,88.358 C316.916,84.509 314.998,79.732 314.998,74.03 C314.998,68.301 316.916,63.518 320.752,59.681 C324.589,55.845 329.371,53.926 335.101,53.926 C340.829,53.926 345.612,55.845 349.448,59.681 C353.285,63.518 355.204,68.301 355.204,74.03 C355.204,79.758 353.285,84.541 349.448,88.378 C345.612,92.215 340.829,94.133 335.101,94.133 C329.371,94.133 324.589,92.208 320.752,88.358" fill="#222222"/>
    <path d="M372.864,58.656 C375.676,55.765 379.104,54.32 383.152,54.32 C384.44,54.32 385.662,54.425 386.818,54.635 L385.083,65.515 C383.795,64.359 381.956,63.741 379.565,63.662 C376.885,63.846 374.65,65.791 372.864,69.495 L372.864,93.738 L361.827,93.738 L361.827,55.463 L372.864,54.28 z" fill="#222222"/>
    <path d="M411.889,93.738 C407.421,93.738 403.873,92.49 401.246,89.994 C398.617,87.498 397.304,84.278 397.304,80.336 L397.304,63.268 L391.391,63.268 L391.391,54.359 L397.304,54.359 L397.304,43.677 L408.38,42.494 L408.38,54.359 L414.293,54.359 L414.293,63.268 L408.38,63.268 L408.38,78.758 C408.38,80.862 408.819,82.34 409.701,83.194 C410.581,84.047 411.717,84.474 413.111,84.474 C413.53,84.474 414.515,84.304 416.066,83.962 L418.392,91.885 C416.501,93.121 414.333,93.738 411.889,93.738" fill="#222222"/>
    <path d="M436.131,54.28 L425.094,54.28 L425.094,93.738 L436.131,93.738 z M436.131,93.738 M426.275,40.898 C427.326,39.833 428.745,39.301 430.532,39.301 C432.425,39.301 433.896,39.833 434.948,40.898 C435.998,41.962 436.524,43.283 436.524,44.86 C436.524,46.436 435.998,47.751 434.948,48.802 C433.896,49.853 432.45,50.378 430.611,50.378 C428.772,50.378 427.326,49.853 426.275,48.802 C425.225,47.751 424.699,46.436 424.699,44.86 C424.699,43.283 425.225,41.962 426.275,40.898" fill="#222222"/>
    <path d="M469.517,79.745 L469.517,54.28 L480.555,54.28 L480.555,93.738 L469.517,93.738 L469.517,90.152 C466.863,92.516 463.71,93.699 460.057,93.699 C455.063,93.699 451.253,92.188 448.625,89.165 C445.997,86.144 444.684,82.662 444.684,78.72 L444.684,54.28 L455.72,54.28 L455.72,75.961 C455.72,78.588 456.378,80.625 457.692,82.07 C459.005,83.516 460.989,84.278 463.645,84.357 C465.93,84.199 467.887,82.662 469.517,79.745" fill="#222222"/>
    <path d="M500.974,68.511 L500.974,93.739 L489.936,93.739 L489.936,55.464 L500.974,54.281 L500.974,57.789 C503.443,55.477 506.596,54.32 510.434,54.32 C515.427,54.32 519.237,55.832 521.865,58.854 C524.755,55.832 529.091,54.32 534.873,54.32 C539.865,54.32 543.677,55.832 546.303,58.854 C548.932,61.876 550.245,65.358 550.245,69.299 L550.245,93.739 L539.208,93.739 L539.208,72.058 C539.208,69.431 538.617,67.394 537.435,65.948 C536.253,64.504 534.333,63.741 531.68,63.663 C529.497,63.82 527.607,65.266 526.005,67.998 C525.872,68.813 525.807,69.641 525.807,70.482 L525.807,93.739 L514.771,93.739 L514.771,72.058 C514.771,69.431 514.177,67.394 512.997,65.948 C511.814,64.504 509.895,63.741 507.241,63.663 C504.823,63.82 502.733,65.436 500.974,68.511" fill="#222222"/>
    <path d="M78.274,67.56 C79.724,66.261 80.449,64.198 80.449,61.372 C80.449,58.547 79.699,56.608 78.199,55.557 C76.699,54.507 74.073,53.982 70.322,53.982 L61.545,53.982 L61.545,69.51 L70.097,69.51 C74.097,69.51 76.822,68.861 78.274,67.56 M92.377,61.334 C92.377,69.735 89.05,75.163 82.399,77.613 L95.678,96.367 L81.275,96.367 L69.647,79.638 L61.545,79.638 L61.545,96.367 L49.842,96.367 L49.842,43.93 L69.722,43.93 C77.873,43.93 83.687,45.306 87.163,48.056 C90.638,50.807 92.377,55.232 92.377,61.334" fill="#0047BA"/>
    <path d="M68.668,20.269 C65.053,20.269 62.136,17.352 62.115,13.737 C62.115,10.145 65.032,7.205 68.625,7.205 C72.24,7.184 75.179,10.101 75.179,13.716 C75.2,17.308 72.283,20.248 68.668,20.269 M92.663,26.605 C89.548,24.798 88.46,20.813 90.246,17.678 C92.053,14.543 96.059,13.475 99.174,15.262 C102.308,17.047 103.376,21.053 101.59,24.188 C100.393,26.279 98.194,27.454 95.908,27.454 C94.82,27.454 93.686,27.193 92.663,26.605 M18.285,46.767 C15.149,44.96 14.083,40.976 15.867,37.84 C17.675,34.705 21.659,33.638 24.796,35.446 C27.93,37.231 28.997,41.237 27.19,44.351 L27.211,44.351 C25.993,46.463 23.794,47.638 21.53,47.638 C20.418,47.638 19.308,47.355 18.285,46.767 M116.81,68.301 L116.81,68.04 C116.789,64.426 119.706,61.508 123.321,61.487 C126.912,61.464 129.853,64.383 129.874,67.996 L129.874,68.149 L129.874,68.258 C129.874,71.85 126.957,74.769 123.342,74.769 C119.749,74.769 116.831,71.873 116.81,68.301 M15.999,98.872 C14.192,95.758 15.259,91.752 18.372,89.944 C21.485,88.137 25.47,89.204 27.298,92.317 C29.106,95.431 28.062,99.437 24.925,101.245 C23.903,101.832 22.769,102.115 21.659,102.115 C19.395,102.115 17.217,100.962 15.999,98.872 M90.465,118.729 C88.658,115.615 89.723,111.609 92.859,109.802 C95.972,107.995 99.957,109.062 101.764,112.175 C103.572,115.289 102.504,119.295 99.391,121.102 C98.368,121.711 97.235,121.995 96.125,121.995 C93.882,121.995 91.683,120.819 90.465,118.729 M38.359,121.167 L38.359,121.167 C35.247,119.361 34.158,115.376 35.965,112.241 C37.773,109.127 41.757,108.059 44.891,109.845 C48.007,111.653 49.095,115.637 47.288,118.773 C46.067,120.863 43.869,122.039 41.625,122.039 C40.516,122.039 39.384,121.755 38.359,121.167" fill="#0047BA"/>
    <path d="M62.355,122.779 C62.355,119.164 65.272,116.247 68.887,116.247 C72.478,116.225 75.419,119.143 75.419,122.757 C75.419,126.371 72.502,129.289 68.887,129.311 C65.272,129.311 62.355,126.371 62.355,122.779" fill="#999DDD"/>
    <path d="M112.783,101.157 C109.668,99.35 108.601,95.344 110.408,92.23 C112.215,89.094 116.2,88.028 119.336,89.835 C122.449,91.643 123.517,95.649 121.709,98.762 C120.512,100.853 118.314,102.028 116.049,102.028 C114.937,102.028 113.827,101.745 112.783,101.157" fill="#999DDD"/>
    <path d="M7.768,68.366 C7.768,64.774 10.685,61.834 14.279,61.834 C17.894,61.813 20.832,64.73 20.832,68.345 C20.832,71.959 17.915,74.877 14.321,74.898 C10.707,74.898 7.789,71.981 7.768,68.366" fill="#999DDD"/>
    <path d="M110.299,44.089 C108.492,40.976 109.538,36.991 112.651,35.162 C115.764,33.355 119.772,34.4 121.579,37.513 C123.408,40.627 122.34,44.633 119.227,46.441 C118.203,47.05 117.071,47.334 115.961,47.334 C113.697,47.334 111.52,46.179 110.299,44.089" fill="#999DDD"/>
    <path d="M35.791,24.384 C33.962,21.27 35.03,17.264 38.143,15.457 C41.256,13.628 45.262,14.694 47.069,17.808 C48.898,20.921 47.832,24.928 44.717,26.736 C43.695,27.345 42.563,27.628 41.43,27.628 C39.187,27.628 37.009,26.474 35.791,24.384" fill="#999DDD"/>
    <path d="M299.086,139.533 L299.086,156.933 L290.025,156.933 L290.025,139.293 Q290.025,135.453 288.855,133.653 Q287.685,131.853 285.076,131.853 Q282.465,131.853 280.456,133.803 Q278.445,135.753 278.445,139.533 L278.445,156.933 L269.445,156.933 L269.445,124.653 L278.445,124.653 L278.445,128.313 Q282.165,124.113 286.965,124.113 Q290.025,124.113 292.516,125.913 Q295.005,127.713 296.266,130.293 Q298.125,127.353 301.275,125.733 Q304.426,124.113 307.605,124.113 Q313.305,124.113 316.785,127.503 Q320.266,130.893 320.266,137.313 L320.266,156.933 L311.206,156.933 L311.206,139.293 Q311.206,131.853 305.745,131.853 Q303.046,131.853 301.065,133.803 Q299.086,135.753 299.086,139.533 z" fill="#0047BA"/>
    <path d="M356.385,152.253 Q350.926,157.413 343.576,157.413 Q336.225,157.413 331.426,152.883 Q326.625,148.353 326.625,140.733 Q326.625,133.113 331.516,128.613 Q336.405,124.113 343.065,124.113 Q349.725,124.113 354.375,128.133 Q359.025,132.153 359.025,139.173 L359.025,143.973 L335.505,143.973 Q335.926,146.613 338.266,148.293 Q340.605,149.973 343.546,149.973 Q348.285,149.973 351.345,146.793 z M349.905,137.553 Q349.605,134.673 347.745,133.113 Q345.885,131.553 343.215,131.553 Q340.546,131.553 338.326,133.173 Q336.105,134.793 335.745,137.553 L349.905,137.553 z" fill="#0047BA"/>
    <path d="M395.146,139.533 L395.146,156.933 L386.086,156.933 L386.086,139.293 Q386.086,135.453 384.915,133.653 Q383.745,131.853 381.135,131.853 Q378.526,131.853 376.516,133.803 Q374.505,135.753 374.505,139.533 L374.505,156.933 L365.505,156.933 L365.505,124.653 L374.505,124.653 L374.505,128.313 Q378.225,124.113 383.026,124.113 Q386.086,124.113 388.576,125.913 Q391.065,127.713 392.326,130.293 Q394.185,127.353 397.336,125.733 Q400.486,124.113 403.665,124.113 Q409.366,124.113 412.845,127.503 Q416.326,130.893 416.326,137.313 L416.326,156.933 L407.266,156.933 L407.266,139.293 Q407.266,131.853 401.806,131.853 Q399.105,131.853 397.125,133.803 Q395.146,135.753 395.146,139.533 z" fill="#0047BA"/>
    <path d="M443.086,124.113 Q448.965,124.113 453.345,128.703 Q457.725,133.293 457.725,140.493 Q457.725,147.693 453.225,152.553 Q448.725,157.413 442.995,157.413 Q437.266,157.413 433.486,152.673 L433.486,156.933 L424.486,156.933 L424.486,112.413 L433.486,112.413 L433.486,128.253 Q437.206,124.113 443.086,124.113 z M433.366,140.853 Q433.366,144.753 435.555,147.243 Q437.745,149.733 440.866,149.733 Q443.986,149.733 446.326,147.243 Q448.665,144.753 448.665,140.853 Q448.665,136.953 446.385,134.313 Q444.105,131.673 440.926,131.673 Q437.745,131.673 435.555,134.283 Q433.366,136.893 433.366,140.853 z" fill="#0047BA"/>
    <path d="M492.406,152.253 Q486.945,157.413 479.596,157.413 Q472.246,157.413 467.445,152.883 Q462.646,148.353 462.646,140.733 Q462.646,133.113 467.535,128.613 Q472.426,124.113 479.086,124.113 Q485.746,124.113 490.396,128.133 Q495.046,132.153 495.046,139.173 L495.046,143.973 L471.526,143.973 Q471.945,146.613 474.285,148.293 Q476.626,149.973 479.565,149.973 Q484.306,149.973 487.366,146.793 z M485.926,137.553 Q485.626,134.673 483.766,133.113 Q481.906,131.553 479.236,131.553 Q476.565,131.553 474.346,133.173 Q472.126,134.793 471.766,137.553 L485.926,137.553 z" fill="#0047BA"/>
    <path d="M518.505,132.573 Q514.485,132.573 512.505,135.423 Q510.525,138.273 510.525,142.953 L510.525,156.933 L501.525,156.933 L501.525,124.653 L510.525,124.653 L510.525,128.913 Q512.266,126.933 514.875,125.553 Q517.485,124.173 520.185,124.113 L520.245,132.573 z" fill="#0047BA"/>
    <path d="M550.245,146.913 Q550.245,151.653 546.735,154.533 Q543.225,157.413 537.826,157.413 Q534.225,157.413 530.326,156.123 Q526.425,154.833 523.305,152.313 L527.266,146.673 Q532.305,150.573 538.005,150.573 Q539.745,150.573 540.766,149.883 Q541.786,149.193 541.786,148.053 Q541.786,146.913 540.375,145.953 Q538.966,144.993 536.295,144.153 Q533.625,143.313 532.216,142.713 Q530.805,142.113 529.005,140.973 Q525.346,138.693 525.346,134.223 Q525.346,129.753 528.945,126.933 Q532.545,124.113 538.245,124.113 Q543.945,124.113 549.646,127.953 L546.286,133.953 Q542.086,131.073 537.915,131.073 Q533.745,131.073 533.745,133.353 Q533.745,134.613 535.065,135.333 Q536.385,136.053 539.445,137.013 Q542.505,137.973 543.795,138.483 Q545.086,138.993 546.885,140.073 Q550.245,142.113 550.245,146.913 z" fill="#0047BA"/>
  </g>
</svg>
