<?xml version="1.0" encoding="utf-8"?>
<!-- Generator: Adobe Illustrator 22.0.1, SVG Export Plug-In . SVG Version: 6.00 Build 0)  -->
<svg version="1.1" id="Layer_1" xmlns="http://www.w3.org/2000/svg" xmlns:xlink="http://www.w3.org/1999/xlink" x="0px" y="0px"
	 viewBox="0 0 792 612" style="enable-background:new 0 0 792 612;" xml:space="preserve">
<style type="text/css">
	.st0{fill:#212322;}
	.st1{fill:#0047BA;}
	.st2{fill:#969CDE;}
</style>
<g id="XMLID_5_">
	<g id="XMLID_200_">
		<path id="XMLID_222_" class="st0" d="M243.4,379.8c-2.7-2.3-4.1-5.2-4.1-8.8v-2.7c0-3.6,1.4-6.6,4.1-8.8c2.7-2.3,5.9-3.4,9.5-3.4
			c4.4,0,8,1.5,10.9,4.6l-5.4,4.1c-1.6-1.6-3.4-2.4-5.4-2.4c-1.8,0-3.4,0.7-4.8,2.2c-1.4,1.5-2,3.2-2,5.2s0.6,3.7,1.9,5.2
			c1.3,1.5,2.9,2.2,4.9,2.2c2,0,3.8-0.8,5.4-2.4l5.4,4.1c-2.9,3.1-6.5,4.6-10.9,4.6C249.3,383.2,246.1,382,243.4,379.8z"/>
		<path id="XMLID_219_" class="st0" d="M271.7,379.4c-2.6-2.7-4-6-4-9.9c0-4,1.3-7.3,4-9.9c2.6-2.6,5.9-4,9.9-4s7.3,1.3,9.9,4
			c2.6,2.6,4,5.9,4,9.9c0,4-1.3,7.3-4,9.9c-2.6,2.6-5.9,4-9.9,4S274.3,382.1,271.7,379.4z M281.5,376.8c2.1,0,3.7-0.7,5-2.1
			c1.3-1.4,1.9-3.1,1.9-5.2s-0.6-3.8-1.9-5.2c-1.3-1.4-3-2.1-5.1-2.1c-2,0-3.7,0.7-5,2.1c-1.3,1.4-1.9,3.1-1.9,5.2s0.6,3.8,1.9,5.2
			C277.8,376.1,279.5,376.8,281.5,376.8z"/>
		<path id="XMLID_217_" class="st0" d="M308.2,365.8v17.3h-7.6v-26.4l7.6-0.8v2.5c1.8-1.6,4-2.4,6.5-2.4c3.4,0,6.1,1,7.9,3.1
			c1.8,2.1,2.7,4.5,2.7,7.2v16.9h-7.6v-15c0-1.8-0.5-3.2-1.4-4.2c-0.9-1-2.3-1.5-4.1-1.6C310.7,362.5,309.3,363.7,308.2,365.8z"/>
		<path id="XMLID_215_" class="st0" d="M347.1,356.7c1.4,0.6,2.7,1.5,4,2.7l-4.2,4.8c-1.2-1.5-2.8-2.2-4.6-2.2c-1.8,0-3.1,0.3-3.7,1
			c-0.6,0.7-0.6,1.3,0,1.8c0.6,0.6,1.8,1,3.7,1.4c2.7,0.3,4.9,1,6.6,2.3c1.7,1.3,2.6,3.5,2.6,6.7c0,2.6-1,4.6-3,6
			c-2,1.4-4.4,2.1-7.1,2.1c-2.6,0-4.7-0.4-6.4-1.1c-1.7-0.7-3.2-1.7-4.4-3l4.2-4.8c1.2,1.5,3.1,2.3,5.7,2.6c2.1,0,3.4-0.3,4-1
			c0.6-0.7,0.7-1.4,0.3-2c-0.4-0.7-1.9-1.1-4.3-1.4c-2.2-0.3-4.2-0.9-6.1-2c-1.8-1.1-2.8-3.2-2.8-6.3c0-2.8,1-5,3.1-6.4
			c2.1-1.5,4.2-2.2,6.5-2.2C343.7,355.8,345.7,356.1,347.1,356.7z"/>
		<path id="XMLID_212_" class="st0" d="M359.4,379.4c-2.6-2.7-4-6-4-9.9c0-4,1.3-7.3,4-9.9c2.6-2.6,5.9-4,9.9-4c4,0,7.3,1.3,9.9,4
			c2.6,2.6,4,5.9,4,9.9c0,4-1.3,7.3-4,9.9c-2.6,2.6-5.9,4-9.9,4C365.3,383.4,362,382.1,359.4,379.4z M369.3,376.8
			c2.1,0,3.7-0.7,5-2.1c1.3-1.4,1.9-3.1,1.9-5.2s-0.6-3.8-1.9-5.2c-1.3-1.4-3-2.1-5.1-2.1c-2,0-3.7,0.7-5,2.1
			c-1.3,1.4-1.9,3.1-1.9,5.2s0.6,3.8,1.9,5.2C365.5,376.1,367.2,376.8,369.3,376.8z"/>
		<path id="XMLID_210_" class="st0" d="M395.4,358.9c1.9-2,4.3-3,7.1-3c0.9,0,1.7,0.1,2.5,0.2l-1.2,7.5c-0.9-0.8-2.2-1.2-3.8-1.3
			c-1.8,0.1-3.4,1.5-4.6,4v16.7h-7.6v-26.4l7.6-0.8V358.9z"/>
		<path id="XMLID_208_" class="st0" d="M422.3,383.2c-3.1,0-5.5-0.9-7.3-2.6s-2.7-3.9-2.7-6.7v-11.8h-4.1V356h4.1v-7.4l7.6-0.8v8.2
			h4.1v6.1h-4.1v10.7c0,1.5,0.3,2.5,0.9,3.1c0.6,0.6,1.4,0.9,2.4,0.9c0.3,0,1-0.1,2-0.4l1.6,5.5C425.5,382.7,424,383.2,422.3,383.2z
			"/>
		<path id="XMLID_205_" class="st0" d="M432.2,346.7c0.7-0.7,1.7-1.1,2.9-1.1c1.3,0,2.3,0.4,3,1.1c0.7,0.7,1.1,1.6,1.1,2.7
			c0,1.1-0.4,2-1.1,2.7c-0.7,0.7-1.7,1.1-3,1.1s-2.3-0.4-3-1.1s-1.1-1.6-1.1-2.7C431.1,348.3,431.5,347.4,432.2,346.7z M439,383.2
			v-27.2h-7.6v27.2H439z"/>
		<path id="XMLID_203_" class="st0" d="M462.1,373.5v-17.6h7.6v27.2h-7.6v-2.5c-1.8,1.6-4,2.4-6.5,2.4c-3.4,0-6.1-1-7.9-3.1
			c-1.8-2.1-2.7-4.5-2.7-7.2v-16.9h7.6v15c0,1.8,0.5,3.2,1.4,4.2c0.9,1,2.3,1.5,4.1,1.6C459.6,376.6,460.9,375.5,462.1,373.5z"/>
		<path id="XMLID_201_" class="st0" d="M483.8,365.7v17.4h-7.6v-26.4l7.6-0.8v2.4c1.7-1.6,3.9-2.4,6.5-2.4c3.4,0,6.1,1,7.9,3.1
			c2-2.1,5-3.1,9-3.1c3.4,0,6.1,1,7.9,3.1c1.8,2.1,2.7,4.5,2.7,7.2v16.9h-7.6v-15c0-1.8-0.4-3.2-1.2-4.2c-0.8-1-2.1-1.5-4-1.6
			c-1.5,0.1-2.8,1.1-3.9,3c-0.1,0.6-0.1,1.1-0.1,1.7v16h-7.6v-15c0-1.8-0.4-3.2-1.2-4.2c-0.8-1-2.1-1.5-4-1.6
			C486.4,362.5,485,363.6,483.8,365.7z"/>
	</g>
</g>
<g id="XMLID_865_">
	<g id="XMLID_1_">
		<path id="XMLID_2_" class="st1" d="M395,264c0,7.4-2.9,12.1-8.7,14.3l11.6,16.4h-12.6l-10.2-14.7H368v14.7h-10.3v-46h17.4
			c7.1,0,12.2,1.2,15.3,3.6C393.5,254.8,395,258.7,395,264z M382.6,269.5c1.3-1.1,1.9-2.9,1.9-5.4c0-2.5-0.7-4.2-2-5.1
			s-3.6-1.4-6.9-1.4H368v13.6h7.5C379,271.2,381.4,270.6,382.6,269.5z"/>
	</g>
	<path id="XMLID_871_" class="st1" d="M347.6,316.5L347.6,316.5L347.6,316.5c-2.7-1.6-3.7-5.1-2.1-7.8l0,0c1.6-2.7,5.1-3.7,7.8-2.1
		l0,0c2.7,1.6,3.7,5.1,2.1,7.8l0,0c-1.1,1.8-3,2.9-5,2.9l0,0C349.5,317.2,348.5,317,347.6,316.5z M393.3,314.3
		c-1.6-2.7-0.7-6.2,2.1-7.8l0,0c2.7-1.6,6.2-0.6,7.8,2.1l0,0c1.6,2.7,0.6,6.2-2.1,7.8l0,0c-0.9,0.5-1.9,0.8-2.9,0.8l0,0
		C396.3,317.2,394.4,316.2,393.3,314.3z M328.1,296.9c-1.6-2.7-0.6-6.2,2.1-7.8l0,0c2.7-1.6,6.2-0.6,7.8,2.1l0,0
		c1.6,2.7,0.7,6.2-2.1,7.8l0,0c-0.9,0.5-1.9,0.8-2.9,0.8l0,0C331,299.8,329.1,298.8,328.1,296.9z M416.4,270.1c0-0.1,0-0.2,0-0.2
		l0,0c0-3.2,2.5-5.7,5.7-5.7l0,0c3.1,0,5.7,2.5,5.7,5.7l0,0c0,0,0,0.1,0,0.1l0,0c0,0,0,0.1,0,0.1l0,0l0,0l0,0c0,3.1-2.6,5.7-5.7,5.7
		l0,0C419,275.8,416.4,273.3,416.4,270.1z M330.1,251.3c-2.7-1.6-3.7-5.1-2.1-7.8l0,0c1.6-2.7,5.1-3.7,7.8-2.1l0,0
		c2.7,1.6,3.7,5.1,2.1,7.8h0c-1.1,1.9-3,2.9-5,2.9l0,0C331.9,252,331,251.8,330.1,251.3z M395.2,233.6c-2.7-1.6-3.7-5.1-2.1-7.8l0,0
		c1.6-2.7,5.1-3.7,7.8-2.1l0,0c2.7,1.6,3.7,5.1,2.1,7.8l0,0c-1,1.8-3,2.9-5,2.9l0,0C397.1,234.3,396.1,234.1,395.2,233.6z
		 M374.2,228c-3.2,0-5.7-2.6-5.7-5.7l0,0c0-3.1,2.6-5.7,5.7-5.7l0,0c3.2,0,5.7,2.5,5.7,5.7l0,0C379.9,225.4,377.4,228,374.2,228
		L374.2,228z"/>
	<path id="XMLID_870_" class="st2" d="M368.7,317.9c0-3.2,2.6-5.7,5.7-5.7l0,0c3.1,0,5.7,2.5,5.7,5.7l0,0c0,3.2-2.6,5.7-5.7,5.7l0,0
		C371.2,323.6,368.7,321,368.7,317.9z"/>
	<path id="XMLID_869_" class="st2" d="M412.9,298.9c-2.7-1.6-3.7-5.1-2.1-7.8l0,0c1.6-2.7,5.1-3.7,7.8-2.1l0,0
		c2.7,1.6,3.7,5.1,2.1,7.8l0,0c-1,1.8-3,2.9-5,2.9l0,0C414.8,299.7,413.8,299.4,412.9,298.9z"/>
	<path id="XMLID_868_" class="st2" d="M320.8,270.2c0-3.1,2.6-5.7,5.7-5.7l0,0c3.2,0,5.7,2.5,5.7,5.7l0,0c0,3.2-2.6,5.7-5.7,5.7l0,0
		C323.4,275.9,320.9,273.4,320.8,270.2z"/>
	<path id="XMLID_867_" class="st2" d="M410.7,248.9c-1.6-2.7-0.7-6.2,2.1-7.8l0,0c2.7-1.6,6.2-0.7,7.8,2.1l0,0
		c1.6,2.7,0.7,6.2-2.1,7.8l0,0c-0.9,0.5-1.9,0.8-2.9,0.8l0,0C413.7,251.8,411.8,250.7,410.7,248.9z"/>
	<path id="XMLID_866_" class="st2" d="M345.4,231.6c-1.6-2.7-0.7-6.2,2.1-7.8l0,0c2.7-1.6,6.2-0.7,7.8,2.1l0,0
		c1.6,2.7,0.7,6.2-2.1,7.8l0,0c-0.9,0.5-1.9,0.8-2.9,0.8l0,0C348.4,234.5,346.5,233.5,345.4,231.6z"/>
</g>
</svg>
