<?xml version="1.0" encoding="utf-8"?>
<!-- Generator: Adobe Illustrator 22.0.1, SVG Export Plug-In . SVG Version: 6.00 Build 0)  -->
<svg version="1.1" id="Layer_1" xmlns="http://www.w3.org/2000/svg" xmlns:xlink="http://www.w3.org/1999/xlink" x="0px" y="0px"
	 viewBox="0 0 792 612" style="enable-background:new 0 0 792 612;" xml:space="preserve">
<style type="text/css">
	.st0{fill:#212322;}
	.st1{fill:#0047BA;}
	.st2{fill:#969CDE;}
</style>
<g id="XMLID_5_">
	<g id="XMLID_200_">
		<path id="XMLID_222_" class="st0" d="M291.2,322.1c-3.1-2.6-4.6-5.9-4.6-10V309c0-4.1,1.5-7.4,4.6-10c3.1-2.6,6.7-3.8,10.8-3.8
			c4.9,0,9,1.7,12.3,5.2l-6.1,4.6c-1.8-1.8-3.9-2.8-6.2-2.8c-2.1,0-3.8,0.8-5.4,2.5c-1.5,1.6-2.3,3.6-2.3,5.8s0.7,4.2,2.2,5.8
			c1.4,1.6,3.3,2.5,5.5,2.5c2.3,0,4.3-0.9,6.2-2.8l6.1,4.6c-3.3,3.5-7.4,5.2-12.3,5.2C297.9,325.9,294.3,324.7,291.2,322.1z"/>
		<path id="XMLID_219_" class="st0" d="M323.1,321.8c-3-3-4.5-6.7-4.5-11.2c0-4.5,1.5-8.2,4.5-11.2c3-3,6.7-4.5,11.2-4.5
			c4.5,0,8.2,1.5,11.2,4.5c3,3,4.5,6.7,4.5,11.2c0,4.5-1.5,8.2-4.5,11.2c-3,3-6.7,4.5-11.2,4.5C329.9,326.3,326.1,324.8,323.1,321.8
			z M334.3,318.8c2.3,0,4.2-0.8,5.7-2.4c1.5-1.6,2.2-3.5,2.2-5.9s-0.7-4.3-2.2-5.9c-1.5-1.6-3.4-2.4-5.7-2.4c-2.3,0-4.2,0.8-5.7,2.4
			c-1.5,1.6-2.2,3.5-2.2,5.9s0.7,4.3,2.2,5.9S332,318.8,334.3,318.8z"/>
		<path id="XMLID_217_" class="st0" d="M364.5,306.4v19.6h-8.6v-29.9l8.6-0.9v2.8c2.1-1.8,4.5-2.8,7.4-2.8c3.9,0,6.9,1.2,8.9,3.5
			s3.1,5.1,3.1,8.1v19.1h-8.6V309c0-2-0.5-3.6-1.5-4.8c-1-1.1-2.6-1.7-4.6-1.8C367.3,302.6,365.7,303.9,364.5,306.4z"/>
		<path id="XMLID_215_" class="st0" d="M408.4,296.1c1.6,0.7,3.1,1.7,4.5,3.1l-4.8,5.4c-1.4-1.7-3.1-2.5-5.2-2.5
			c-2.1,0-3.5,0.4-4.2,1.2c-0.7,0.8-0.7,1.5,0,2.1c0.7,0.6,2.1,1.1,4.2,1.6c3.1,0.3,5.6,1.2,7.5,2.6c1.9,1.5,2.9,4,2.9,7.6
			c0,2.9-1.1,5.2-3.4,6.8c-2.3,1.6-5,2.4-8,2.4c-2.9,0-5.3-0.4-7.3-1.2c-1.9-0.8-3.6-1.9-5-3.3l4.8-5.4c1.4,1.7,3.6,2.6,6.5,2.9
			c2.4,0,3.9-0.4,4.6-1.2s0.8-1.5,0.3-2.3s-2.1-1.3-4.9-1.6c-2.5-0.3-4.8-1.1-6.9-2.3c-2.1-1.3-3.1-3.6-3.1-7.1
			c0-3.2,1.2-5.6,3.6-7.3c2.4-1.7,4.8-2.5,7.3-2.5C404.6,295,406.8,295.4,408.4,296.1z"/>
		<path id="XMLID_212_" class="st0" d="M422.3,321.8c-3-3-4.5-6.7-4.5-11.2c0-4.5,1.5-8.2,4.5-11.2c3-3,6.7-4.5,11.2-4.5
			c4.5,0,8.2,1.5,11.2,4.5c3,3,4.5,6.7,4.5,11.2c0,4.5-1.5,8.2-4.5,11.2s-6.7,4.5-11.2,4.5C429,326.3,425.3,324.8,422.3,321.8z
			 M433.5,318.8c2.3,0,4.2-0.8,5.7-2.4c1.5-1.6,2.2-3.5,2.2-5.9s-0.7-4.3-2.2-5.9c-1.5-1.6-3.4-2.4-5.7-2.4c-2.3,0-4.2,0.8-5.7,2.4
			c-1.5,1.6-2.2,3.5-2.2,5.9s0.7,4.3,2.2,5.9C429.2,318,431.1,318.8,433.5,318.8z"/>
		<path id="XMLID_210_" class="st0" d="M463,298.6c2.2-2.3,4.9-3.4,8-3.4c1,0,2,0.1,2.9,0.2l-1.4,8.5c-1-0.9-2.4-1.4-4.3-1.4
			c-2.1,0.1-3.8,1.7-5.2,4.6v18.9h-8.6v-29.9l8.6-0.9V298.6z"/>
		<path id="XMLID_208_" class="st0" d="M493.4,325.9c-3.5,0-6.3-1-8.3-2.9c-2.1-1.9-3.1-4.5-3.1-7.5v-13.3h-4.6v-6.9h4.6v-8.3
			l8.6-0.9v9.3h4.6v6.9h-4.6v12.1c0,1.6,0.3,2.8,1,3.5c0.7,0.7,1.6,1,2.7,1c0.3,0,1.1-0.1,2.3-0.4l1.8,6.2
			C497,325.5,495.3,325.9,493.4,325.9z"/>
		<path id="XMLID_205_" class="st0" d="M504.6,284.7c0.8-0.8,1.9-1.2,3.3-1.2c1.5,0,2.6,0.4,3.4,1.2c0.8,0.8,1.2,1.9,1.2,3.1
			s-0.4,2.3-1.2,3.1c-0.8,0.8-1.9,1.2-3.4,1.2s-2.6-0.4-3.4-1.2c-0.8-0.8-1.2-1.8-1.2-3.1S503.8,285.6,504.6,284.7z M512.3,325.9
			v-30.8h-8.6v30.8H512.3z"/>
		<path id="XMLID_203_" class="st0" d="M538.4,315v-19.9h8.6v30.8h-8.6v-2.8c-2.1,1.8-4.5,2.8-7.4,2.8c-3.9,0-6.9-1.2-8.9-3.5
			c-2-2.4-3.1-5.1-3.1-8.1v-19.1h8.6v16.9c0,2,0.5,3.6,1.5,4.8c1,1.1,2.6,1.7,4.6,1.8C535.6,318.5,537.1,317.3,538.4,315z"/>
		<path id="XMLID_201_" class="st0" d="M562.9,306.3v19.7h-8.6v-29.9l8.6-0.9v2.7c1.9-1.8,4.4-2.7,7.4-2.7c3.9,0,6.9,1.2,8.9,3.5
			c2.3-2.4,5.6-3.5,10.1-3.5c3.9,0,6.9,1.2,8.9,3.5s3.1,5.1,3.1,8.1v19.1h-8.6V309c0-2-0.5-3.6-1.4-4.8c-0.9-1.1-2.4-1.7-4.5-1.8
			c-1.7,0.1-3.2,1.3-4.4,3.4c-0.1,0.6-0.2,1.3-0.2,1.9v18.1h-8.6V309c0-2-0.5-3.6-1.4-4.8c-0.9-1.1-2.4-1.7-4.5-1.8
			C565.9,302.6,564.3,303.9,562.9,306.3z"/>
	</g>
</g>
<g id="XMLID_1_">
	<path id="XMLID_2_" class="st1" d="M244.1,300.7c0,6.6-2.6,10.8-7.8,12.7l10.4,14.6h-11.2l-9.1-13h-6.3v13H211v-40.9h15.5
		c6.4,0,10.9,1.1,13.6,3.2C242.8,292.5,244.1,295.9,244.1,300.7z M233.1,305.5c1.1-1,1.7-2.6,1.7-4.8c0-2.2-0.6-3.7-1.8-4.5
		s-3.2-1.2-6.1-1.2h-6.8V307h6.7C229.9,307,232,306.5,233.1,305.5z"/>
</g>
<path id="XMLID_954_" class="st1" d="M202,347.3L202,347.3L202,347.3c-2.4-1.4-3.3-4.5-1.9-7l0,0c1.4-2.4,4.5-3.3,7-1.9l0,0
	c2.4,1.4,3.3,4.5,1.9,7l0,0c-1,1.6-2.7,2.5-4.4,2.5l0,0C203.7,348,202.8,347.8,202,347.3z M242.7,345.4c-1.4-2.4-0.6-5.6,1.9-7l0,0
	c2.4-1.4,5.5-0.6,6.9,1.9l0,0c1.4,2.4,0.6,5.6-1.9,7l0,0c-0.8,0.5-1.7,0.7-2.5,0.7l0,0C245.3,348,243.6,347.1,242.7,345.4z
	 M184.6,330c-1.4-2.4-0.6-5.6,1.9-7l0,0c2.4-1.4,5.5-0.6,7,1.9l0,0c1.4,2.4,0.6,5.6-1.9,7l0,0c-0.8,0.5-1.7,0.7-2.5,0.7l0,0
	C187.2,332.5,185.5,331.6,184.6,330z M263.2,306.1c0-0.1,0-0.1,0-0.2l0,0c0-2.8,2.3-5.1,5.1-5.1l0,0c2.8,0,5.1,2.3,5.1,5.1l0,0
	c0,0,0,0.1,0,0.1l0,0c0,0,0,0.1,0,0.1l0,0l0,0l0,0c0,2.8-2.3,5.1-5.1,5.1l0,0C265.5,311.1,263.2,308.9,263.2,306.1z M186.3,289.3
	c-2.4-1.4-3.3-4.5-1.9-7l0,0c1.4-2.4,4.5-3.3,7-1.9l0,0c2.4,1.4,3.3,4.5,1.9,6.9h0c-1,1.6-2.7,2.6-4.4,2.6l0,0
	C188,290,187.1,289.8,186.3,289.3z M244.4,273.6c-2.4-1.4-3.3-4.5-1.9-7l0,0c1.4-2.4,4.5-3.3,7-1.9l0,0c2.4,1.4,3.3,4.5,1.9,7l0,0
	c-0.9,1.6-2.6,2.5-4.4,2.5l0,0C246.1,274.2,245.2,274,244.4,273.6z M225.7,268.6c-2.8,0-5.1-2.3-5.1-5.1l0,0c0-2.8,2.3-5.1,5.1-5.1
	l0,0c2.8,0,5.1,2.3,5.1,5.1l0,0C230.7,266.3,228.5,268.6,225.7,268.6L225.7,268.6z"/>
<path id="XMLID_953_" class="st2" d="M220.7,348.6c0-2.8,2.3-5.1,5.1-5.1l0,0c2.8,0,5.1,2.3,5.1,5.1l0,0c0,2.8-2.3,5.1-5.1,5.1l0,0
	C223,353.7,220.7,351.4,220.7,348.6z"/>
<path id="XMLID_952_" class="st2" d="M260.1,331.7c-2.4-1.4-3.3-4.5-1.9-7l0,0c1.4-2.4,4.5-3.3,7-1.9l0,0c2.4,1.4,3.3,4.5,1.9,7l0,0
	c-0.9,1.6-2.6,2.5-4.4,2.5l0,0C261.7,332.4,260.9,332.2,260.1,331.7z"/>
<path id="XMLID_951_" class="st2" d="M178.1,306.2c0-2.8,2.3-5.1,5.1-5.1l0,0c2.8,0,5.1,2.3,5.1,5.1l0,0c0,2.8-2.3,5.1-5.1,5.1l0,0
	C180.4,311.3,178.2,309,178.1,306.2z"/>
<path id="XMLID_950_" class="st2" d="M258.1,287.2c-1.4-2.4-0.6-5.5,1.8-7l0,0c2.4-1.4,5.6-0.6,7,1.8l0,0c1.4,2.4,0.6,5.6-1.8,7l0,0
	c-0.8,0.5-1.7,0.7-2.5,0.7l0,0C260.8,289.7,259.1,288.8,258.1,287.2z"/>
<path id="XMLID_949_" class="st2" d="M200,271.8c-1.4-2.4-0.6-5.6,1.8-7l0,0c2.4-1.4,5.6-0.6,7,1.8l0,0c1.4,2.4,0.6,5.6-1.8,7l0,0
	c-0.8,0.5-1.7,0.7-2.6,0.7l0,0C202.7,274.4,201,273.5,200,271.8z"/>
</svg>
